<svg width="512" height="512" viewBox="0 0 512 512" fill="none" xmlns="http://www.w3.org/2000/svg">
  <!-- Background with slight gradient for quality feel -->
  <rect width="512" height="512" rx="114" fill="#CFD8DC"/>
  <rect width="512" height="512" rx="114" fill="url(#paint0_linear)" fill-opacity="0.1"/>
  
  <!-- Base dashed ellipse - thicker for visibility -->
  <ellipse cx="256" cy="360" rx="180" ry="70" stroke="#455A64" stroke-width="5" stroke-dasharray="12 12" opacity="0.8"/>
  
  <!-- Vertical connecting lines - much thicker and more saturated -->
  <g>
    <line x1="76" y1="200" x2="76" y2="360" stroke="#D84315" stroke-width="6"/>
    <line x1="126" y1="145" x2="126" y2="310" stroke="#D84315" stroke-width="6"/>
    <line x1="256" y1="120" x2="256" y2="290" stroke="#D84315" stroke-width="6"/>
    <line x1="386" y1="145" x2="386" y2="310" stroke="#D84315" stroke-width="6"/>
    <line x1="436" y1="200" x2="436" y2="360" stroke="#D84315" stroke-width="6"/>
    <line x1="386" y1="255" x2="386" y2="410" stroke="#D84315" stroke-width="6"/>
    <line x1="256" y1="280" x2="256" y2="430" stroke="#D84315" stroke-width="6"/>
    <line x1="126" y1="255" x2="126" y2="410" stroke="#D84315" stroke-width="6"/>
  </g>

  <!-- Top Ring - thicker for bold appearance -->
  <ellipse cx="256" cy="200" rx="180" ry="80" stroke="#263238" stroke-width="18"/>
  
  <!-- Nodes (Dots) - larger and more vibrant -->
  <circle cx="76" cy="200" r="20" fill="#BF360C"/>
  <circle cx="126" cy="145" r="20" fill="#BF360C"/>
  <circle cx="256" cy="120" r="20" fill="#BF360C"/>
  <circle cx="386" cy="145" r="20" fill="#BF360C"/>
  <circle cx="436" cy="200" r="20" fill="#BF360C"/>
  <circle cx="386" cy="255" r="20" fill="#BF360C"/>
  <circle cx="256" cy="280" r="20" fill="#BF360C"/>
  <circle cx="126" cy="255" r="20" fill="#BF360C"/>

  <defs>
    <linearGradient id="paint0_linear" x1="0" y1="0" x2="512" y2="512" gradientUnits="userSpaceOnUse">
      <stop stop-color="white"/>
      <stop offset="1" stop-color="#90A4AE"/>
    </linearGradient>
  </defs>
</svg>
